{"title":"Small.Time.2014.480p.BRRip.XviD.AC3-N3kr4","uid":10308112,"size":1709847605,"categoryP":"video","categoryS":"hd___movies","magnet":"?xt=urn:btih:6846e3b19be67071c7230c3486aac4978ec864c6&amp;dn=Small.Time.2014.480p.BRRip.XviD.AC3-N3kr4&amp;tr=udp%3A%2F%2Ftracker.openbittorrent.com%3A80&amp;tr=udp%3A%2F%2Fopen.demonii.com%3A1337&amp;tr=udp%3A%2F%2Ftracker.coppersurfer.tk%3A6969&amp;tr=udp%3A%2F%2Fexodus.desync.com%3A6969","seeders":1,"leechers":0,"uploader":"Falcon.G13","files":2,"time":1402156044,"description":" &lt;a href=&quot;http://www.imdb.com/title/tt2310109/&quot; rel=&quot;nofollow&quot; target=&quot;_NEW&quot;&gt;http://www.imdb.com/title/tt2310109/&lt;/a&gt;\n\nSmall Time (2014)\n 104 min - Drama - 18 April 2014 (USA)\n5.6 Your rating: -/10 Ratings: 5.6/10 from 264 users Metascore: 53/100 \n\nA young guy decides to skip college in favor of joining his\n father on the lot of his used-car business.\n &lt;a href=&quot;\nhttp://i.imgur.com/xQMxrWF.jpg&quot; rel=&quot;nofollow&quot; target=&quot;_NEW&quot;&gt;\nhttp://i.imgur.com/xQMxrWF.jpg&lt;/a&gt; &lt;a href=&quot;\nhttp://i.imgur.com/r1lYgx5.jpg&quot; rel=&quot;nofollow&quot; target=&quot;_NEW&quot;&gt;\nhttp://i.imgur.com/r1lYgx5.jpg&lt;/a&gt; &lt;a href=&quot;\nhttp://i.imgur.com/rSCFiKM.jpg&quot; rel=&quot;nofollow&quot; target=&quot;_NEW&quot;&gt;\nhttp://i.imgur.com/rSCFiKM.jpg&lt;/a&gt; &lt;a href=&quot;\nhttp://i.imgur.com/bNSsjOF.jpg&quot; rel=&quot;nofollow&quot; target=&quot;_NEW&quot;&gt;\nhttp://i.imgur.com/bNSsjOF.jpg&lt;/a&gt; &lt;a href=&quot;\nhttp://i.imgur.com/gc2Vy7v.jpg&quot; rel=&quot;nofollow&quot; target=&quot;_NEW&quot;&gt;\nhttp://i.imgur.com/gc2Vy7v.jpg&lt;/a&gt; &lt;a href=&quot;\nhttp://i.imgur.com/03gz3j8.jpg&quot; rel=&quot;nofollow&quot; target=&quot;_NEW&quot;&gt;\nhttp://i.imgur.com/03gz3j8.jpg&lt;/a&gt; &lt;a href=&quot;\nhttp://i.imgur.com/zqMBDDC.jpg&quot; rel=&quot;nofollow&quot; target=&quot;_NEW&quot;&gt;\nhttp://i.imgur.com/zqMBDDC.jpg&lt;/a&gt; &lt;a href=&quot;\nhttp://i.imgur.com/6ATHdwv.jpg&quot; rel=&quot;nofollow&quot; target=&quot;_NEW&quot;&gt;\nhttp://i.imgur.com/6ATHdwv.jpg&lt;/a&gt;\n\nGeneral\nComplete name : Small.Time.2014.480p.BRRip.XviD.AC3-N3kr4.avi\nFormat : AVI\nFormat/Info : Audio Video Interleave\nFormat profile : OpenDML\nFile size : 1.59 GiB\nDuration : 1h 34mn\nOverall bit rate : 2 408 Kbps\nWriting application : Lavf55.7.100\n\nVideo\nID : 0\nFormat : MPEG-4 Visual\nFormat profile : Advanced Simple@L1\nFormat settings, BVOP : No\nFormat settings, QPel : No\nFormat settings, GMC : No warppoints\nFormat settings, Matrix : Default (H.263)\nCodec ID : XVID\nCodec ID/Hint : XviD\nDuration : 1h 34mn\nBit rate : 1 757 Kbps\nWidth : 720 pixels\nHeight : 400 pixels\nDisplay aspect ratio : 16:9\nFrame rate : 23.976 fps\nColor space : YUV\nChroma subsampling : 4:2:0\nBit depth : 8 bits\nScan type : Progressive\nCompression mode : Lossy\nBits/(Pixel*Frame) : 0.254\nStream size : 1.16 GiB (73%)\nWriting library : Lavc55.12.100\n\nAudio\nID : 1\nFormat : AC-3\nFormat/Info : Audio Coding 3\nMode extension : CM (complete main)\nFormat settings, Endianness : Big\nCodec ID : 2000\nDuration : 1h 34mn\nBit rate mode : Constant\nBit rate : 640 Kbps\nChannel(s) : 6 channels\nChannel positions : Front: L C R, Side: L R, LFE\nSampling rate : 48.0 KHz\nBit depth : 16 bits\nCompression mode : Lossy\nStream size : 433 MiB (27%)\nAlignment : Aligned on interleaves\nInterleave, duration : 32 ms (0.77 video frame)\nInterleave, preload duration : 32 ms\n","torrent":{"xt":"urn:btih:6846e3b19be67071c7230c3486aac4978ec864c6","amp;dn":"Small.Time.2014.480p.BRRip.XviD.AC3-N3kr4","amp;tr":["udp%3A%2F%2Ftracker.openbittorrent.com%3A80","udp%3A%2F%2Fopen.demonii.com%3A1337","udp%3A%2F%2Ftracker.coppersurfer.tk%3A6969","udp%3A%2F%2Fexodus.desync.com%3A6969"],"infoHash":"6846e3b19be67071c7230c3486aac4978ec864c6","infoHashBuffer":{"type":"Buffer","data":[104,70,227,177,155,230,112,113,199,35,12,52,134,170,196,151,142,200,100,198]},"announce":[],"urlList":[]}}